<svg data-v-423bf9ae="" xmlns="http://www.w3.org/2000/svg" viewBox="0 0 828 90" class="iconLeft"><!----><!----><!----><g data-v-423bf9ae="" id="19f63b8d-d394-4650-a1e6-91bf7b457392" fill="#B298DC" transform="matrix(5.623242696436797,0,0,5.623242696436797,113.03705106297974,15.056231705444244)"><path d="M0.97 10.50L0.97 1.36L3.57 1.36L3.57 1.36Q4.28 1.36 4.92 1.50L4.92 1.50L4.92 1.50Q5.56 1.64 6.03 1.97L6.03 1.97L6.03 1.97Q6.50 2.31 6.78 2.86L6.78 2.86L6.78 2.86Q7.06 3.40 7.06 4.21L7.06 4.21L7.06 4.21Q7.06 5.00 6.78 5.54L6.78 5.54L6.78 5.54Q6.50 6.08 6.03 6.41L6.03 6.41L6.03 6.41Q5.57 6.75 4.98 6.89L4.98 6.89L4.98 6.89Q4.38 7.04 3.75 7.04L3.75 7.04L2.90 7.04L2.90 10.50L0.97 10.50ZM2.91 5.49L3.43 5.49L3.43 5.49Q3.78 5.49 4.07 5.43L4.07 5.43L4.07 5.43Q4.37 5.38 4.58 5.23L4.58 5.23L4.58 5.23Q4.80 5.08 4.92 4.83L4.92 4.83L4.92 4.83Q5.04 4.58 5.04 4.20L5.04 4.20L5.04 4.20Q5.04 3.81 4.92 3.56L4.92 3.56L4.92 3.56Q4.80 3.30 4.58 3.16L4.58 3.16L4.58 3.16Q4.37 3.02 4.07 2.97L4.07 2.97L4.07 2.97Q3.78 2.91 3.43 2.91L3.43 2.91L2.91 2.91L2.91 5.49ZM11.06 3.12L11.06 3.12L11.06 3.12Q11.52 3.12 12.05 3.27L12.05 3.27L12.05 3.27Q12.59 3.42 13.05 3.75L13.05 3.75L13.05 3.75Q13.51 4.07 13.80 4.59L13.80 4.59L13.80 4.59Q14.10 5.11 14.08 5.85L14.08 5.85L14.08 10.50L12.71 10.50L12.71 10.50Q12.71 10.50 12.67 10.33L12.67 10.33L12.67 10.33Q12.63 10.16 12.58 9.95L12.58 9.95L12.58 9.95Q12.53 9.74 12.49 9.58L12.49 9.58L12.49 9.58Q12.45 9.42 12.45 9.44L12.45 9.44L12.45 9.44Q12.25 9.79 11.93 10.05L11.93 10.05L11.93 10.05Q11.65 10.29 11.21 10.47L11.21 10.47L11.21 10.47Q10.77 10.65 10.12 10.65L10.12 10.65L10.12 10.65Q9.67 10.65 9.24 10.52L9.24 10.52L9.24 10.52Q8.81 10.39 8.46 10.13L8.46 10.13L8.46 10.13Q8.12 9.87 7.90 9.48L7.90 9.48L7.90 9.48Q7.69 9.09 7.67 8.57L7.67 8.57L7.67 8.57Q7.64 8.02 7.82 7.59L7.82 7.59L7.82 7.59Q7.99 7.17 8.32 6.86L8.32 6.86L8.32 6.86Q8.65 6.55 9.11 6.36L9.11 6.36L9.11 6.36Q9.58 6.17 10.12 6.10L10.12 6.10L10.12 6.10Q10.64 6.03 11.26 6.03L11.26 6.03L11.26 6.03Q11.87 6.03 12.36 6.06L12.36 6.06L12.36 5.84L12.36 5.84Q12.36 5.24 12.10 4.93L12.10 4.93L12.10 4.93Q11.83 4.63 11.43 4.54L11.43 4.54L11.43 4.54Q11.03 4.45 10.56 4.52L10.56 4.52L10.56 4.52Q10.08 4.59 9.65 4.72L9.65 4.72L9.65 4.72Q9.21 4.86 8.88 5.00L8.88 5.00L8.88 5.00Q8.55 5.15 8.47 5.22L8.47 5.22L8.47 3.81L8.47 3.81Q8.48 3.79 8.72 3.69L8.72 3.69L8.72 3.69Q8.96 3.58 9.32 3.46L9.32 3.46L9.32 3.46Q9.69 3.33 10.14 3.23L10.14 3.23L10.14 3.23Q10.60 3.12 11.06 3.12ZM11.96 8.68L11.96 8.68L11.96 8.68Q12.19 8.37 12.27 7.99L12.27 7.99L12.27 7.99Q12.35 7.62 12.35 7.20L12.35 7.20L11.54 7.20L11.54 7.20Q11.21 7.20 10.85 7.24L10.85 7.24L10.85 7.24Q10.49 7.28 10.18 7.41L10.18 7.41L10.18 7.41Q9.87 7.53 9.66 7.78L9.66 7.78L9.66 7.78Q9.45 8.02 9.45 8.44L9.45 8.44L9.45 8.44Q9.45 8.90 9.79 9.11L9.79 9.11L9.79 9.11Q10.14 9.32 10.64 9.32L10.64 9.32L10.64 9.32Q11.07 9.32 11.40 9.15L11.40 9.15L11.40 9.15Q11.73 8.97 11.96 8.68ZM20.64 3.98L20.01 5.39L20.01 5.39Q19.53 5.03 18.97 4.84L18.97 4.84L18.97 4.84Q18.41 4.66 18.03 4.66L18.03 4.66L18.03 4.66Q17.67 4.66 17.46 4.79L17.46 4.79L17.46 4.79Q17.25 4.91 17.25 5.24L17.25 5.24L17.25 5.24Q17.25 5.52 17.51 5.68L17.51 5.68L17.51 5.68Q17.78 5.85 18.17 6.00L18.17 6.00L18.17 6.00Q18.56 6.15 19.03 6.31L19.03 6.31L19.03 6.31Q19.49 6.47 19.88 6.73L19.88 6.73L19.88 6.73Q20.27 6.99 20.54 7.38L20.54 7.38L20.54 7.38Q20.80 7.78 20.80 8.40L20.80 8.40L20.80 8.40Q20.80 8.99 20.59 9.41L20.59 9.41L20.59 9.41Q20.37 9.84 20.01 10.12L20.01 10.12L20.01 10.12Q19.66 10.39 19.19 10.52L19.19 10.52L19.19 10.52Q18.73 10.65 18.24 10.65L18.24 10.65L18.24 10.65Q17.89 10.65 17.49 10.58L17.49 10.58L17.49 10.58Q17.09 10.50 16.71 10.34L16.71 10.34L16.71 10.34Q16.32 10.18 15.97 9.95L15.97 9.95L15.97 9.95Q15.61 9.72 15.34 9.42L15.34 9.42L15.96 8.05L15.96 8.05Q16.45 8.58 17.01 8.86L17.01 8.86L17.01 8.86Q17.57 9.13 18.03 9.13L18.03 9.13L18.03 9.13Q18.42 9.13 18.79 8.99L18.79 8.99L18.79 8.99Q19.15 8.85 19.17 8.51L19.17 8.51L19.17 8.51Q19.18 8.19 18.92 7.99L18.92 7.99L18.92 7.99Q18.66 7.78 18.27 7.63L18.27 7.63L18.27 7.63Q17.88 7.48 17.42 7.31L17.42 7.31L17.42 7.31Q16.95 7.15 16.56 6.90L16.56 6.90L16.56 6.90Q16.17 6.65 15.90 6.27L15.90 6.27L15.90 6.27Q15.64 5.89 15.65 5.29L15.65 5.29L15.65 5.29Q15.65 4.72 15.86 4.30L15.86 4.30L15.86 4.30Q16.06 3.89 16.39 3.63L16.39 3.63L16.39 3.63Q16.73 3.37 17.17 3.25L17.17 3.25L17.17 3.25Q17.61 3.12 18.09 3.12L18.09 3.12L18.09 3.12Q18.37 3.12 18.70 3.18L18.70 3.18L18.70 3.18Q19.04 3.23 19.38 3.35L19.38 3.35L19.38 3.35Q19.73 3.46 20.05 3.61L20.05 3.61L20.05 3.61Q20.38 3.77 20.64 3.98L20.64 3.98ZM25.27 9.20L25.27 9.20L25.27 9.20Q25.68 9.20 26.03 9.13L26.03 9.13L26.03 9.13Q26.19 9.09 26.36 9.04L26.36 9.04L26.38 10.50L26.38 10.50Q26.12 10.54 25.84 10.58L25.84 10.58L25.84 10.58Q25.61 10.61 25.28 10.63L25.28 10.63L25.28 10.63Q24.96 10.65 24.60 10.65L24.60 10.65L24.60 10.65Q24.07 10.60 23.66 10.33L23.66 10.33L23.66 10.33Q23.31 10.09 23.02 9.63L23.02 9.63L23.02 9.63Q22.74 9.16 22.74 8.30L22.74 8.30L22.74 5.36L21.36 5.36L21.36 3.99L22.74 3.99L22.74 1.97L24.60 1.55L24.60 3.99L26.29 3.99L26.29 5.36L24.63 5.36L24.63 8.20L24.63 8.20Q24.63 8.39 24.68 8.56L24.68 8.56L24.68 8.56Q24.72 8.74 24.82 8.88L24.82 8.88L24.82 8.88Q24.91 9.02 25.03 9.11L25.03 9.11L25.03 9.11Q25.14 9.20 25.27 9.20ZM31.30 10.65L31.30 10.65L31.30 10.65Q30.14 10.65 29.39 10.35L29.39 10.35L29.39 10.35Q28.63 10.04 28.18 9.52L28.18 9.52L28.18 9.52Q27.72 9.00 27.54 8.32L27.54 8.32L27.54 8.32Q27.36 7.64 27.36 6.89L27.36 6.89L27.36 6.89Q27.36 6.22 27.54 5.54L27.54 5.54L27.54 5.54Q27.72 4.87 28.12 4.33L28.12 4.33L28.12 4.33Q28.52 3.79 29.16 3.46L29.16 3.46L29.16 3.46Q29.81 3.12 30.73 3.12L30.73 3.12L30.73 3.12Q31.71 3.12 32.36 3.46L32.36 3.46L32.36 3.46Q33.01 3.79 33.40 4.33L33.40 4.33L33.40 4.33Q33.80 4.87 33.96 5.54L33.96 5.54L33.96 5.54Q34.12 6.22 34.12 6.89L34.12 6.89L34.12 7.52L29.16 7.52L29.16 7.52Q29.16 8.27 29.70 8.76L29.70 8.76L29.70 8.76Q30.24 9.25 31.18 9.25L31.18 9.25L31.18 9.25Q31.71 9.25 32.16 9.14L32.16 9.14L32.16 9.14Q32.61 9.03 32.93 8.89L32.93 8.89L32.93 8.89Q33.29 8.74 33.60 8.53L33.60 8.53L33.60 10.09L33.60 10.09Q33.60 10.11 33.42 10.19L33.42 10.19L33.42 10.19Q33.24 10.28 32.93 10.38L32.93 10.38L32.93 10.38Q32.62 10.49 32.20 10.57L32.20 10.57L32.20 10.57Q31.78 10.65 31.30 10.65ZM29.16 6.19L32.34 6.19L32.34 6.19Q32.34 5.95 32.28 5.66L32.28 5.66L32.28 5.66Q32.21 5.38 32.04 5.12L32.04 5.12L32.04 5.12Q31.86 4.87 31.55 4.70L31.55 4.70L31.55 4.70Q31.23 4.54 30.73 4.54L30.73 4.54L30.73 4.54Q30.30 4.54 30.00 4.70L30.00 4.70L30.00 4.70Q29.69 4.87 29.51 5.12L29.51 5.12L29.51 5.12Q29.33 5.38 29.25 5.66L29.25 5.66L29.25 5.66Q29.16 5.95 29.16 6.19L29.16 6.19ZM37.52 8.48L37.52 8.48L37.52 8.48Q37.53 8.72 37.65 8.86L37.65 8.86L37.65 8.86Q37.76 9.00 37.92 9.06L37.92 9.06L37.92 9.06Q38.08 9.13 38.28 9.13L38.28 9.13L38.28 9.13Q38.49 9.14 38.71 9.11L38.71 9.11L38.71 10.56L38.71 10.56Q38.51 10.60 38.37 10.62L38.37 10.62L38.37 10.62Q38.22 10.64 38.11 10.65L38.11 10.65L38.11 10.65Q37.98 10.67 37.90 10.65L37.90 10.65L37.90 10.65Q37.37 10.65 36.95 10.61L36.95 10.61L36.95 10.61Q36.53 10.57 36.23 10.34L36.23 10.34L36.23 10.34Q35.94 10.11 35.78 9.64L35.78 9.64L35.78 9.64Q35.63 9.17 35.63 8.30L35.63 8.30L35.63 1.55L37.52 1.55L37.52 8.48ZM43.93 10.65L43.93 10.65L43.93 10.65Q42.77 10.65 42.01 10.35L42.01 10.35L42.01 10.35Q41.26 10.04 40.80 9.52L40.80 9.52L40.80 9.52Q40.35 9.00 40.17 8.32L40.17 8.32L40.17 8.32Q39.98 7.64 39.98 6.89L39.98 6.89L39.98 6.89Q39.98 6.22 40.17 5.54L40.17 5.54L40.17 5.54Q40.35 4.87 40.75 4.33L40.75 4.33L40.75 4.33Q41.15 3.79 41.79 3.46L41.79 3.46L41.79 3.46Q42.43 3.12 43.36 3.12L43.36 3.12L43.36 3.12Q44.34 3.12 44.99 3.46L44.99 3.46L44.99 3.46Q45.64 3.79 46.03 4.33L46.03 4.33L46.03 4.33Q46.42 4.87 46.59 5.54L46.59 5.54L46.59 5.54Q46.75 6.22 46.75 6.89L46.75 6.89L46.75 7.52L41.79 7.52L41.79 7.52Q41.79 8.27 42.33 8.76L42.33 8.76L42.33 8.76Q42.87 9.25 43.81 9.25L43.81 9.25L43.81 9.25Q44.34 9.25 44.79 9.14L44.79 9.14L44.79 9.14Q45.23 9.03 45.56 8.89L45.56 8.89L45.56 8.89Q45.92 8.74 46.23 8.53L46.23 8.53L46.23 10.09L46.23 10.09Q46.23 10.11 46.05 10.19L46.05 10.19L46.05 10.19Q45.86 10.28 45.56 10.38L45.56 10.38L45.56 10.38Q45.25 10.49 44.83 10.57L44.83 10.57L44.83 10.57Q44.41 10.65 43.93 10.65ZM41.79 6.19L44.97 6.19L44.97 6.19Q44.97 5.95 44.91 5.66L44.91 5.66L44.91 5.66Q44.84 5.38 44.67 5.12L44.67 5.12L44.67 5.12Q44.49 4.87 44.18 4.70L44.18 4.70L44.18 4.70Q43.86 4.54 43.36 4.54L43.36 4.54L43.36 4.54Q42.92 4.54 42.62 4.70L42.62 4.70L42.62 4.70Q42.32 4.87 42.14 5.12L42.14 5.12L42.14 5.12Q41.96 5.38 41.87 5.66L41.87 5.66L41.87 5.66Q41.79 5.95 41.79 6.19L41.79 6.19ZM52.65 3.18L52.65 5.10L52.65 5.10Q52.33 5.03 52.07 5.02L52.07 5.02L52.07 5.02Q51.81 5.01 51.59 5.03L51.59 5.03L51.59 5.03Q51.14 5.05 50.86 5.22L50.86 5.22L50.86 5.22Q50.57 5.39 50.41 5.66L50.41 5.66L50.41 5.66Q50.26 5.94 50.20 6.28L50.20 6.28L50.20 6.28Q50.15 6.62 50.15 6.99L50.15 6.99L50.15 10.50L48.26 10.50L48.26 3.36L49.64 3.36L49.94 4.93L49.94 4.93Q49.94 4.93 49.97 4.77L49.97 4.77L49.97 4.77Q50.01 4.61 50.11 4.38L50.11 4.38L50.11 4.38Q50.22 4.14 50.41 3.88L50.41 3.88L50.41 3.88Q50.61 3.63 50.91 3.43L50.91 3.43L50.91 3.43Q51.21 3.23 51.64 3.15L51.64 3.15L51.64 3.15Q52.07 3.07 52.65 3.18L52.65 3.18ZM53.76 2.31L55.01 0.27L56.80 0.27L54.94 2.31L53.76 2.31ZM55.79 10.50L53.90 10.50L53.90 3.29L55.79 3.29L55.79 10.50ZM60.42 3.12L60.42 3.12L60.42 3.12Q60.89 3.12 61.42 3.27L61.42 3.27L61.42 3.27Q61.95 3.42 62.41 3.75L62.41 3.75L62.41 3.75Q62.87 4.07 63.17 4.59L63.17 4.59L63.17 4.59Q63.46 5.11 63.45 5.85L63.45 5.85L63.45 10.50L62.08 10.50L62.08 10.50Q62.08 10.50 62.03 10.33L62.03 10.33L62.03 10.33Q61.99 10.16 61.94 9.95L61.94 9.95L61.94 9.95Q61.89 9.74 61.85 9.58L61.85 9.58L61.85 9.58Q61.81 9.42 61.81 9.44L61.81 9.44L61.81 9.44Q61.61 9.79 61.29 10.05L61.29 10.05L61.29 10.05Q61.01 10.29 60.57 10.47L60.57 10.47L60.57 10.47Q60.13 10.65 59.49 10.65L59.49 10.65L59.49 10.65Q59.04 10.65 58.60 10.52L58.60 10.52L58.60 10.52Q58.17 10.39 57.83 10.13L57.83 10.13L57.83 10.13Q57.48 9.87 57.27 9.48L57.27 9.48L57.27 9.48Q57.05 9.09 57.04 8.57L57.04 8.57L57.04 8.57Q57.01 8.02 57.18 7.59L57.18 7.59L57.18 7.59Q57.36 7.17 57.69 6.86L57.69 6.86L57.69 6.86Q58.02 6.55 58.48 6.36L58.48 6.36L58.48 6.36Q58.94 6.17 59.49 6.10L59.49 6.10L59.49 6.10Q60.00 6.03 60.62 6.03L60.62 6.03L60.62 6.03Q61.24 6.03 61.73 6.06L61.73 6.06L61.73 5.84L61.73 5.84Q61.73 5.24 61.46 4.93L61.46 4.93L61.46 4.93Q61.19 4.63 60.80 4.54L60.80 4.54L60.80 4.54Q60.40 4.45 59.92 4.52L59.92 4.52L59.92 4.52Q59.44 4.59 59.01 4.72L59.01 4.72L59.01 4.72Q58.58 4.86 58.25 5.00L58.25 5.00L58.25 5.00Q57.92 5.15 57.83 5.22L57.83 5.22L57.83 3.81L57.83 3.81Q57.85 3.79 58.09 3.69L58.09 3.69L58.09 3.69Q58.32 3.58 58.69 3.46L58.69 3.46L58.69 3.46Q59.05 3.33 59.51 3.23L59.51 3.23L59.51 3.23Q59.96 3.12 60.42 3.12ZM61.32 8.68L61.32 8.68L61.32 8.68Q61.56 8.37 61.64 7.99L61.64 7.99L61.64 7.99Q61.71 7.62 61.71 7.20L61.71 7.20L60.90 7.20L60.90 7.20Q60.58 7.20 60.21 7.24L60.21 7.24L60.21 7.24Q59.85 7.28 59.54 7.41L59.54 7.41L59.54 7.41Q59.23 7.53 59.02 7.78L59.02 7.78L59.02 7.78Q58.81 8.02 58.81 8.44L58.81 8.44L58.81 8.44Q58.81 8.90 59.16 9.11L59.16 9.11L59.16 9.11Q59.50 9.32 60.00 9.32L60.00 9.32L60.00 9.32Q60.44 9.32 60.77 9.15L60.77 9.15L60.77 9.15Q61.10 8.97 61.32 8.68ZM73.05 6.85L73.05 5.28L76.73 5.28L76.73 9.84L76.73 9.84Q76.40 10.02 75.94 10.17L75.94 10.17L75.94 10.17Q75.47 10.32 74.98 10.42L74.98 10.42L74.98 10.42Q74.48 10.53 74.00 10.59L74.00 10.59L74.00 10.59Q73.51 10.65 73.15 10.65L73.15 10.65L73.15 10.65Q72.48 10.65 71.72 10.45L71.72 10.45L71.72 10.45Q70.95 10.25 70.30 9.72L70.30 9.72L70.30 9.72Q69.65 9.20 69.22 8.28L69.22 8.28L69.22 8.28Q68.78 7.36 68.78 5.92L68.78 5.92L68.78 5.92Q68.78 4.47 69.20 3.54L69.20 3.54L69.20 3.54Q69.62 2.62 70.31 2.10L70.31 2.10L70.31 2.10Q70.99 1.58 71.88 1.39L71.88 1.39L71.88 1.39Q72.77 1.20 73.72 1.20L73.72 1.20L73.72 1.20Q74.16 1.20 74.64 1.27L74.64 1.27L74.64 1.27Q75.12 1.33 75.52 1.40L75.52 1.40L75.52 1.40Q75.92 1.47 76.18 1.54L76.18 1.54L76.18 1.54Q76.44 1.61 76.44 1.61L76.44 1.61L76.44 3.19L76.44 3.19Q76.44 3.19 76.20 3.13L76.20 3.13L76.20 3.13Q75.96 3.07 75.57 3.00L75.57 3.00L75.57 3.00Q75.18 2.93 74.70 2.86L74.70 2.86L74.70 2.86Q74.21 2.80 73.72 2.80L73.72 2.80L73.72 2.80Q73.04 2.80 72.50 2.94L72.50 2.94L72.50 2.94Q71.96 3.08 71.59 3.44L71.59 3.44L71.59 3.44Q71.22 3.79 71.02 4.40L71.02 4.40L71.02 4.40Q70.83 5.00 70.83 5.92L70.83 5.92L70.83 5.92Q70.83 6.75 70.99 7.33L70.99 7.33L70.99 7.33Q71.16 7.91 71.47 8.27L71.47 8.27L71.47 8.27Q71.78 8.64 72.21 8.81L72.21 8.81L72.21 8.81Q72.63 8.99 73.15 8.99L73.15 8.99L73.15 8.99Q73.68 8.99 74.02 8.94L74.02 8.94L74.02 8.94Q74.35 8.89 74.55 8.82L74.55 8.82L74.55 8.82Q74.79 8.75 74.90 8.65L74.90 8.65L74.90 6.85L73.05 6.85ZM81.38 3.12L81.38 3.12L81.38 3.12Q81.84 3.12 82.38 3.27L82.38 3.27L82.38 3.27Q82.91 3.42 83.37 3.75L83.37 3.75L83.37 3.75Q83.83 4.07 84.13 4.59L84.13 4.59L84.13 4.59Q84.42 5.11 84.41 5.85L84.41 5.85L84.41 10.50L83.03 10.50L83.03 10.50Q83.03 10.50 82.99 10.33L82.99 10.33L82.99 10.33Q82.95 10.16 82.90 9.95L82.90 9.95L82.90 9.95Q82.85 9.74 82.81 9.58L82.81 9.58L82.81 9.58Q82.77 9.42 82.77 9.44L82.77 9.44L82.77 9.44Q82.57 9.79 82.25 10.05L82.25 10.05L82.25 10.05Q81.97 10.29 81.53 10.47L81.53 10.47L81.53 10.47Q81.09 10.65 80.44 10.65L80.44 10.65L80.44 10.65Q80.00 10.65 79.56 10.52L79.56 10.52L79.56 10.52Q79.13 10.39 78.79 10.13L78.79 10.13L78.79 10.13Q78.44 9.87 78.23 9.48L78.23 9.48L78.23 9.48Q78.01 9.09 77.99 8.57L77.99 8.57L77.99 8.57Q77.97 8.02 78.14 7.59L78.14 7.59L78.14 7.59Q78.32 7.17 78.65 6.86L78.65 6.86L78.65 6.86Q78.97 6.55 79.44 6.36L79.44 6.36L79.44 6.36Q79.90 6.17 80.44 6.10L80.44 6.10L80.44 6.10Q80.96 6.03 81.58 6.03L81.58 6.03L81.58 6.03Q82.19 6.03 82.68 6.06L82.68 6.06L82.68 5.84L82.68 5.84Q82.68 5.24 82.42 4.93L82.42 4.93L82.42 4.93Q82.15 4.63 81.75 4.54L81.75 4.54L81.75 4.54Q81.35 4.45 80.88 4.52L80.88 4.52L80.88 4.52Q80.40 4.59 79.97 4.72L79.97 4.72L79.97 4.72Q79.53 4.86 79.21 5.00L79.21 5.00L79.21 5.00Q78.88 5.15 78.79 5.22L78.79 5.22L78.79 3.81L78.79 3.81Q78.81 3.79 79.04 3.69L79.04 3.69L79.04 3.69Q79.28 3.58 79.65 3.46L79.65 3.46L79.65 3.46Q80.01 3.33 80.47 3.23L80.47 3.23L80.47 3.23Q80.92 3.12 81.38 3.12ZM82.28 8.68L82.28 8.68L82.28 8.68Q82.52 8.37 82.59 7.99L82.59 7.99L82.59 7.99Q82.67 7.62 82.67 7.20L82.67 7.20L81.86 7.20L81.86 7.20Q81.54 7.20 81.17 7.24L81.17 7.24L81.17 7.24Q80.81 7.28 80.50 7.41L80.50 7.41L80.50 7.41Q80.19 7.53 79.98 7.78L79.98 7.78L79.98 7.78Q79.77 8.02 79.77 8.44L79.77 8.44L79.77 8.44Q79.77 8.90 80.12 9.11L80.12 9.11L80.12 9.11Q80.46 9.32 80.96 9.32L80.96 9.32L80.96 9.32Q81.40 9.32 81.73 9.15L81.73 9.15L81.73 9.15Q82.05 8.97 82.28 8.68ZM88.09 8.48L88.09 8.48L88.09 8.48Q88.10 8.72 88.21 8.86L88.21 8.86L88.21 8.86Q88.33 9.00 88.49 9.06L88.49 9.06L88.49 9.06Q88.65 9.13 88.85 9.13L88.85 9.13L88.85 9.13Q89.05 9.14 89.28 9.11L89.28 9.11L89.28 10.56L89.28 10.56Q89.08 10.60 88.94 10.62L88.94 10.62L88.94 10.62Q88.79 10.64 88.68 10.65L88.68 10.65L88.68 10.65Q88.55 10.67 88.47 10.65L88.47 10.65L88.47 10.65Q87.93 10.65 87.51 10.61L87.51 10.61L87.51 10.61Q87.09 10.57 86.80 10.34L86.80 10.34L86.80 10.34Q86.51 10.11 86.35 9.64L86.35 9.64L86.35 9.64Q86.20 9.17 86.20 8.30L86.20 8.30L86.20 1.55L88.09 1.55L88.09 8.48ZM92.99 2.31L94.23 0.27L96.03 0.27L94.16 2.31L92.99 2.31ZM93.77 3.12L93.77 3.12L93.77 3.12Q93.31 3.12 92.86 3.23L92.86 3.23L92.86 3.23Q92.40 3.33 92.04 3.46L92.04 3.46L92.04 3.46Q91.67 3.58 91.43 3.69L91.43 3.69L91.43 3.69Q91.20 3.79 91.18 3.81L91.18 3.81L91.18 5.22L91.18 5.22Q91.27 5.15 91.60 5.00L91.60 5.00L91.60 5.00Q91.92 4.86 92.36 4.72L92.36 4.72L92.36 4.72Q92.79 4.59 93.27 4.52L93.27 4.52L93.27 4.52Q93.74 4.45 94.14 4.54L94.14 4.54L94.14 4.54Q94.54 4.63 94.81 4.93L94.81 4.93L94.81 4.93Q95.07 5.24 95.07 5.84L95.07 5.84L95.07 6.06L95.07 6.06Q94.58 6.03 93.97 6.03L93.97 6.03L93.97 6.03Q93.35 6.03 92.83 6.10L92.83 6.10L92.83 6.10Q92.29 6.17 91.83 6.36L91.83 6.36L91.83 6.36Q91.36 6.55 91.04 6.86L91.04 6.86L91.04 6.86Q90.71 7.17 90.53 7.59L90.53 7.59L90.53 7.59Q90.36 8.02 90.38 8.57L90.38 8.57L90.38 8.57Q90.40 9.09 90.62 9.48L90.62 9.48L90.62 9.48Q90.83 9.87 91.18 10.13L91.18 10.13L91.18 10.13Q91.52 10.39 91.95 10.52L91.95 10.52L91.95 10.52Q92.39 10.65 92.83 10.65L92.83 10.65L92.83 10.65Q93.48 10.65 93.92 10.47L93.92 10.47L93.92 10.47Q94.36 10.29 94.64 10.05L94.64 10.05L94.64 10.05Q94.96 9.79 95.16 9.44L95.16 9.44L95.16 9.44Q95.16 9.42 95.20 9.58L95.20 9.58L95.20 9.58Q95.24 9.74 95.29 9.95L95.29 9.95L95.29 9.95Q95.34 10.16 95.38 10.33L95.38 10.33L95.38 10.33Q95.42 10.50 95.42 10.50L95.42 10.50L96.80 10.50L96.80 5.85L96.80 5.85Q96.81 5.11 96.52 4.59L96.52 4.59L96.52 4.59Q96.22 4.07 95.76 3.75L95.76 3.75L95.76 3.75Q95.30 3.42 94.77 3.27L94.77 3.27L94.77 3.27Q94.23 3.12 93.77 3.12ZM94.67 8.68L94.67 8.68L94.67 8.68Q94.44 8.97 94.12 9.15L94.12 9.15L94.12 9.15Q93.79 9.32 93.35 9.32L93.35 9.32L93.35 9.32Q92.85 9.32 92.51 9.11L92.51 9.11L92.51 9.11Q92.16 8.90 92.16 8.44L92.16 8.44L92.16 8.44Q92.16 8.02 92.37 7.78L92.37 7.78L92.37 7.78Q92.58 7.53 92.89 7.41L92.89 7.41L92.89 7.41Q93.20 7.28 93.56 7.24L93.56 7.24L93.56 7.24Q93.93 7.20 94.25 7.20L94.25 7.20L95.06 7.20L95.06 7.20Q95.06 7.62 94.98 7.99L94.98 7.99L94.98 7.99Q94.91 8.37 94.67 8.68ZM101.85 3.12L101.85 3.12L101.85 3.12Q102.28 3.12 102.62 3.18L102.62 3.18L102.62 3.18Q102.96 3.23 103.19 3.30L103.19 3.30L103.19 3.30Q103.46 3.39 103.68 3.49L103.68 3.49L103.68 4.82L103.68 4.82Q103.14 4.65 102.50 4.59L102.50 4.59L102.50 4.59Q101.86 4.54 101.32 4.74L101.32 4.74L101.32 4.74Q100.77 4.94 100.41 5.45L100.41 5.45L100.41 5.45Q100.04 5.95 100.04 6.89L100.04 6.89L100.04 6.89Q100.04 7.87 100.41 8.38L100.41 8.38L100.41 8.38Q100.77 8.89 101.32 9.06L101.32 9.06L101.32 9.06Q101.86 9.24 102.50 9.15L102.50 9.15L102.50 9.15Q103.14 9.06 103.68 8.85L103.68 8.85L103.68 10.23L103.68 10.23Q103.47 10.36 103.19 10.44L103.19 10.44L103.19 10.44Q102.96 10.53 102.61 10.59L102.61 10.59L102.61 10.59Q102.27 10.65 101.84 10.65L101.84 10.65L101.84 10.65Q101.29 10.65 100.63 10.51L100.63 10.51L100.63 10.51Q99.97 10.37 99.41 9.97L99.41 9.97L99.41 9.97Q98.84 9.56 98.46 8.83L98.46 8.83L98.46 8.83Q98.08 8.09 98.08 6.89L98.08 6.89L98.08 6.89Q98.08 5.70 98.46 4.96L98.46 4.96L98.46 4.96Q98.84 4.21 99.41 3.81L99.41 3.81L99.41 3.81Q99.97 3.40 100.63 3.26L100.63 3.26L100.63 3.26Q101.29 3.12 101.85 3.12ZM108.28 9.20L108.28 9.20L108.28 9.20Q108.68 9.20 109.03 9.13L109.03 9.13L109.03 9.13Q109.20 9.09 109.37 9.04L109.37 9.04L109.38 10.50L109.38 10.50Q109.13 10.54 108.85 10.58L108.85 10.58L108.85 10.58Q108.61 10.61 108.29 10.63L108.29 10.63L108.29 10.63Q107.97 10.65 107.60 10.65L107.60 10.65L107.60 10.65Q107.07 10.60 106.67 10.33L106.67 10.33L106.67 10.33Q106.32 10.09 106.03 9.63L106.03 9.63L106.03 9.63Q105.74 9.16 105.74 8.30L105.74 8.30L105.74 5.36L104.37 5.36L104.37 3.99L105.74 3.99L105.74 1.97L107.60 1.55L107.60 3.99L109.30 3.99L109.30 5.36L107.63 5.36L107.63 8.20L107.63 8.20Q107.63 8.39 107.68 8.56L107.68 8.56L107.68 8.56Q107.73 8.74 107.82 8.88L107.82 8.88L107.82 8.88Q107.91 9.02 108.03 9.11L108.03 9.11L108.03 9.11Q108.15 9.20 108.28 9.20ZM112.84 10.50L110.95 10.50L110.95 3.29L112.84 3.29L112.84 10.50ZM112.94 1.02L112.94 1.02L112.94 1.02Q112.94 1.47 112.63 1.78L112.63 1.78L112.63 1.78Q112.32 2.09 111.89 2.09L111.89 2.09L111.89 2.09Q111.44 2.09 111.13 1.78L111.13 1.78L111.13 1.78Q110.82 1.47 110.82 1.02L110.82 1.02L110.82 1.02Q110.82 0.59 111.13 0.29L111.13 0.29L111.13 0.29Q111.44-0.01 111.89-0.01L111.89-0.01L111.89-0.01Q112.32-0.01 112.63 0.29L112.63 0.29L112.63 0.29Q112.94 0.59 112.94 1.02ZM118.17 3.12L118.17 3.12L118.17 3.12Q118.61 3.12 118.94 3.18L118.94 3.18L118.94 3.18Q119.28 3.23 119.52 3.30L119.52 3.30L119.52 3.30Q119.78 3.39 120.01 3.49L120.01 3.49L120.01 4.82L120.01 4.82Q119.46 4.65 118.83 4.59L118.83 4.59L118.83 4.59Q118.19 4.54 117.64 4.74L117.64 4.74L117.64 4.74Q117.10 4.94 116.73 5.45L116.73 5.45L116.73 5.45Q116.37 5.95 116.37 6.89L116.37 6.89L116.37 6.89Q116.37 7.87 116.73 8.38L116.73 8.38L116.73 8.38Q117.10 8.89 117.64 9.06L117.64 9.06L117.64 9.06Q118.19 9.24 118.83 9.15L118.83 9.15L118.83 9.15Q119.46 9.06 120.01 8.85L120.01 8.85L120.01 10.23L120.01 10.23Q119.80 10.36 119.52 10.44L119.52 10.44L119.52 10.44Q119.28 10.53 118.94 10.59L118.94 10.59L118.94 10.59Q118.59 10.65 118.16 10.65L118.16 10.65L118.16 10.65Q117.61 10.65 116.96 10.51L116.96 10.51L116.96 10.51Q116.30 10.37 115.73 9.97L115.73 9.97L115.73 9.97Q115.16 9.56 114.79 8.83L114.79 8.83L114.79 8.83Q114.41 8.09 114.41 6.89L114.41 6.89L114.41 6.89Q114.41 5.70 114.79 4.96L114.79 4.96L114.79 4.96Q115.16 4.21 115.73 3.81L115.73 3.81L115.73 3.81Q116.30 3.40 116.96 3.26L116.96 3.26L116.96 3.26Q117.61 3.12 118.17 3.12ZM124.07 3.12L124.07 3.12L124.07 3.12Q124.53 3.12 125.06 3.27L125.06 3.27L125.06 3.27Q125.59 3.42 126.06 3.75L126.06 3.75L126.06 3.75Q126.52 4.07 126.81 4.59L126.81 4.59L126.81 4.59Q127.11 5.11 127.09 5.85L127.09 5.85L127.09 10.50L125.72 10.50L125.72 10.50Q125.72 10.50 125.68 10.33L125.68 10.33L125.68 10.33Q125.64 10.16 125.59 9.95L125.59 9.95L125.59 9.95Q125.54 9.74 125.50 9.58L125.50 9.58L125.50 9.58Q125.45 9.42 125.45 9.44L125.45 9.44L125.45 9.44Q125.26 9.79 124.94 10.05L124.94 10.05L124.94 10.05Q124.66 10.29 124.22 10.47L124.22 10.47L124.22 10.47Q123.77 10.65 123.13 10.65L123.13 10.65L123.13 10.65Q122.68 10.65 122.25 10.52L122.25 10.52L122.25 10.52Q121.81 10.39 121.47 10.13L121.47 10.13L121.47 10.13Q121.13 9.87 120.91 9.48L120.91 9.48L120.91 9.48Q120.69 9.09 120.68 8.57L120.68 8.57L120.68 8.57Q120.65 8.02 120.83 7.59L120.83 7.59L120.83 7.59Q121.00 7.17 121.33 6.86L121.33 6.86L121.33 6.86Q121.66 6.55 122.12 6.36L122.12 6.36L122.12 6.36Q122.58 6.17 123.13 6.10L123.13 6.10L123.13 6.10Q123.65 6.03 124.26 6.03L124.26 6.03L124.26 6.03Q124.88 6.03 125.37 6.06L125.37 6.06L125.37 5.84L125.37 5.84Q125.37 5.24 125.10 4.93L125.10 4.93L125.10 4.93Q124.84 4.63 124.44 4.54L124.44 4.54L124.44 4.54Q124.04 4.45 123.56 4.52L123.56 4.52L123.56 4.52Q123.09 4.59 122.65 4.72L122.65 4.72L122.65 4.72Q122.22 4.86 121.89 5.00L121.89 5.00L121.89 5.00Q121.56 5.15 121.48 5.22L121.48 5.22L121.48 3.81L121.48 3.81Q121.49 3.79 121.73 3.69L121.73 3.69L121.73 3.69Q121.97 3.58 122.33 3.46L122.33 3.46L122.33 3.46Q122.70 3.33 123.15 3.23L123.15 3.23L123.15 3.23Q123.61 3.12 124.07 3.12ZM124.96 8.68L124.96 8.68L124.96 8.68Q125.20 8.37 125.28 7.99L125.28 7.99L125.28 7.99Q125.36 7.62 125.36 7.20L125.36 7.20L124.54 7.20L124.54 7.20Q124.22 7.20 123.86 7.24L123.86 7.24L123.86 7.24Q123.49 7.28 123.19 7.41L123.19 7.41L123.19 7.41Q122.88 7.53 122.67 7.78L122.67 7.78L122.67 7.78Q122.46 8.02 122.46 8.44L122.46 8.44L122.46 8.44Q122.46 8.90 122.80 9.11L122.80 9.11L122.80 9.11Q123.14 9.32 123.65 9.32L123.65 9.32L123.65 9.32Q124.08 9.32 124.41 9.15L124.41 9.15L124.41 9.15Q124.74 8.97 124.96 8.68Z"></path></g><!----><g data-v-423bf9ae="" id="fc6e1ae8-f08e-4249-8de3-026516edabfe" transform="matrix(1.1100145662311853,0,0,1.1100145662311853,-0.3155430949573841,-4.489782818486823)" stroke="none" fill="#B298DC"><path d="M81.086 61.036v4.989a7.789 7.789 0 0 1-7.791 7.79H16.333a7.79 7.79 0 0 1-7.791-7.79V61.22C3.56 63.725.634 66.765.634 70.043c0 8.553 19.863 15.489 44.365 15.489 24.5 0 44.365-6.937 44.365-15.489.001-3.359-3.071-6.469-8.278-9.007zM30.646 50.061a1.67 1.67 0 0 1 2.764 0c2.466 3.641 6.757 5.814 11.476 5.814 4.721 0 9.012-2.174 11.479-5.814.309-.459.828-.733 1.381-.733s1.07.274 1.383.733c2.467 3.641 6.758 5.814 11.475 5.814 2.578 0 5.096-.677 7.248-1.916v-9.961H11.775v9.872a14.552 14.552 0 0 0 7.395 2.006c4.719-.001 9.01-2.175 11.476-5.815z"></path><path d="M70.604 59.214c-5.033 0-9.691-2.031-12.857-5.522-3.166 3.491-7.824 5.522-12.86 5.522-5.035 0-9.691-2.031-12.858-5.522-3.165 3.491-7.824 5.522-12.859 5.522-2.577 0-5.105-.56-7.395-1.594v8.405a4.557 4.557 0 0 0 4.558 4.557h56.962a4.555 4.555 0 0 0 4.557-4.557v-8.338a18 18 0 0 1-7.248 1.527zM77.773 40.66a4.54 4.54 0 0 0-1.607-2.72L59.803 24.667a4.566 4.566 0 0 0-4.287-.792l-.039.013c.111.629.18 1.272.18 1.932 0 6.052-4.924 10.976-10.977 10.976-4.322 0-8.059-2.518-9.848-6.159l-19.916 6.511a4.552 4.552 0 0 0-3.059 3.513h65.916zM45.966 23.336a1.483 1.483 0 0 1-1.28-2.234c2.821-4.826 1.19-11.048-3.636-13.871a1.484 1.484 0 1 1 1.499-2.561c6.239 3.647 8.348 11.691 4.7 17.93a1.482 1.482 0 0 1-1.283.736z"></path><path d="M50.59 20.436a15.176 15.176 0 0 1-1.42 3.288 3.706 3.706 0 0 1-5.074 1.33 3.708 3.708 0 0 1-1.331-5.074 7.833 7.833 0 0 0 .844-2.088c-3.91.526-6.938 3.876-6.938 7.929 0 4.416 3.593 8.007 8.008 8.007 4.416 0 8.008-3.592 8.008-8.007a7.96 7.96 0 0 0-2.097-5.385z"></path></g><!----></svg>